<svg width="14" height="12" viewBox="0 0 14 12" fill="none" xmlns="http://www.w3.org/2000/svg">
<path d="M0 5.98246C0 6.14205 0.0614433 6.2951 0.170815 6.40794C0.280185 6.52078 0.428524 6.58418 0.583197 6.58418H12.0066L7.74923 10.9692C7.63971 11.0833 7.57828 11.2373 7.57828 11.3979C7.57828 11.5585 7.63971 11.7125 7.74923 11.8266C7.8607 11.9378 8.00969 12 8.16475 12C8.31981 12 8.46881 11.9378 8.58028 11.8266L13.8291 6.41118C13.9386 6.2971 14 6.14303 14 5.98246C14 5.8219 13.9386 5.66782 13.8291 5.55374L8.58028 0.138301C8.46697 0.0423497 8.32311 -0.0066852 8.1767 0.000734002C8.03029 0.0081532 7.89179 0.0714961 7.78813 0.178442C7.68448 0.285388 7.62308 0.42829 7.61589 0.579352C7.6087 0.730414 7.65623 0.878835 7.74923 0.995746L12.0066 5.38075H0.583197C0.428524 5.38075 0.280185 5.44414 0.170815 5.55699C0.0614433 5.66983 0 5.82288 0 5.98246Z" fill="#1F1E21"/>
</svg>
