<svg width="10" height="10" viewBox="0 0 10 10" fill="none" xmlns="http://www.w3.org/2000/svg">
<path d="M9.88839 9.34952C9.92378 9.3849 9.95185 9.42691 9.97099 9.47314C9.99014 9.51937 10 9.56892 10 9.61896C10 9.66899 9.99014 9.71854 9.97099 9.76477C9.95185 9.81101 9.92378 9.85301 9.88839 9.88839C9.85301 9.92378 9.81101 9.95185 9.76477 9.97099C9.71854 9.99014 9.66899 10 9.61896 10C9.56892 10 9.51937 9.99014 9.47314 9.97099C9.42691 9.95185 9.3849 9.92378 9.34952 9.88839L5 5.54529L0.650483 9.88839C0.579024 9.95985 0.482104 10 0.381044 10C0.279985 10 0.183065 9.95985 0.111605 9.88839C0.0401456 9.81693 2.6083e-09 9.72001 0 9.61896C-2.6083e-09 9.5179 0.0401456 9.42098 0.111605 9.34952L4.45471 5L0.111605 0.650483C0.0401456 0.579024 -7.5295e-10 0.482104 0 0.381044C7.5295e-10 0.279985 0.0401456 0.183065 0.111605 0.111605C0.183065 0.0401456 0.279985 7.5295e-10 0.381044 0C0.482104 -7.52951e-10 0.579024 0.0401456 0.650483 0.111605L5 4.45471L9.34952 0.111605C9.42098 0.0401456 9.5179 -2.6083e-09 9.61896 0C9.72001 2.6083e-09 9.81693 0.0401456 9.88839 0.111605C9.95985 0.183065 10 0.279985 10 0.381044C10 0.482104 9.95985 0.579024 9.88839 0.650483L5.54529 5L9.88839 9.34952Z" fill="#98959E"/>
</svg>
