<svg width="33" height="24" viewBox="0 0 33 24" fill="none" xmlns="http://www.w3.org/2000/svg">
<path d="M23.1 20.8V24H0V20.8C0 20.8 0 14.4 11.55 14.4C23.1 14.4 23.1 20.8 23.1 20.8ZM17.325 5.60006C17.325 4.49249 16.9863 3.40979 16.3517 2.48888C15.7172 1.56797 14.8152 0.850207 13.76 0.426357C12.7048 0.00250825 11.5436 -0.10839 10.4234 0.107686C9.30311 0.323763 8.27411 0.857109 7.46646 1.64028C6.65881 2.42345 6.10879 3.42127 5.88597 4.50756C5.66314 5.59385 5.7775 6.71982 6.2146 7.74308C6.65169 8.76635 7.39189 9.64094 8.34158 10.2563C9.29128 10.8716 10.4078 11.2 11.55 11.2C13.0816 11.2 14.5505 10.61 15.6335 9.55985C16.7166 8.50965 17.325 7.08527 17.325 5.60006ZM23.001 14.4C24.0153 15.1612 24.8453 16.1287 25.4326 17.2344C26.0198 18.3402 26.35 19.5572 26.4 20.8V24H33V20.8C33 20.8 33 14.992 23.001 14.4ZM21.45 8.41261e-05C20.3143 -0.0060482 19.2036 0.323212 18.2655 0.944081C19.2678 2.30205 19.8067 3.93013 19.8067 5.60006C19.8067 7.27 19.2678 8.89807 18.2655 10.256C19.2036 10.8769 20.3143 11.2062 21.45 11.2C22.9816 11.2 24.4505 10.61 25.5335 9.55985C26.6166 8.50965 27.225 7.08527 27.225 5.60006C27.225 4.11486 26.6166 2.69048 25.5335 1.64028C24.4505 0.590081 22.9816 8.41261e-05 21.45 8.41261e-05Z" fill="#F9F7FA"/>
</svg>
