<svg width="136" height="136" viewBox="0 0 136 136" fill="none" xmlns="http://www.w3.org/2000/svg">
<path d="M59.4967 0C50.4798 0 41.8323 3.58193 35.4564 9.95781C29.0805 16.3337 25.4986 24.9812 25.4986 33.9981C25.4986 43.015 29.0805 51.6625 35.4564 58.0384C41.8323 64.4143 50.4798 67.9962 59.4967 67.9962C68.5135 67.9962 77.1611 64.4143 83.537 58.0384C89.9128 51.6625 93.4948 43.015 93.4948 33.9981C93.4948 24.9812 89.9128 16.3337 83.537 9.95781C77.1611 3.58193 68.5135 0 59.4967 0ZM17.0755 76.4957C14.8371 76.4868 12.6189 76.9198 10.5481 77.77C8.47737 78.6201 6.59482 79.8707 5.00842 81.45C3.42203 83.0293 2.163 84.9062 1.30354 86.9731C0.444082 89.04 0.00110079 91.2563 0 93.4948C0 107.867 7.08011 118.704 18.1465 125.767C29.0429 132.712 43.7301 135.992 59.4967 135.992C61.936 135.992 64.3499 135.907 66.7213 135.754L54.7369 123.762C53.5522 122.578 52.6124 121.172 51.9711 119.624C51.3299 118.077 50.9999 116.419 50.9999 114.744C50.9999 113.069 51.3299 111.41 51.9711 109.863C52.6124 108.315 53.5522 106.91 54.7369 105.726L71.736 88.7265C73.7817 86.6853 76.4603 85.3996 79.3326 85.0803C82.2048 84.761 85.1004 85.427 87.5445 86.9692C89.9886 88.5113 91.8362 90.8381 92.7845 93.568C93.7329 96.2979 93.7255 99.2691 92.7638 101.994H102.708C101.969 99.9045 101.788 97.6581 102.182 95.4768C102.576 93.2954 103.532 91.2546 104.956 89.5555C106.379 87.8564 108.221 86.5579 110.3 85.788C112.379 85.0181 114.622 84.8034 116.809 85.1652C115.331 82.5357 113.18 80.3468 110.576 78.8233C107.973 77.2997 105.011 76.4964 101.994 76.4957H17.0755ZM83.7543 134.751C83.3596 135.147 82.8906 135.461 82.3743 135.675C81.858 135.89 81.3045 136 80.7455 136C80.1865 136 79.633 135.89 79.1167 135.675C78.6004 135.461 78.1314 135.147 77.7367 134.751L60.7376 117.752C60.3418 117.358 60.0278 116.889 59.8136 116.372C59.5994 115.856 59.4891 115.303 59.4891 114.744C59.4891 114.185 59.5994 113.631 59.8136 113.115C60.0278 112.598 60.3418 112.13 60.7376 111.735L77.7367 94.7357C78.5346 93.9377 79.617 93.4894 80.7455 93.4894C81.874 93.4894 82.9563 93.9377 83.7543 94.7357C84.5523 95.5337 85.0006 96.616 85.0006 97.7445C85.0006 98.8731 84.5523 99.9554 83.7543 100.753L74.0054 110.494H121.484L111.735 100.753C110.937 99.9554 110.488 98.8731 110.488 97.7445C110.488 96.616 110.937 95.5337 111.735 94.7357C112.533 93.9377 113.615 93.4894 114.744 93.4894C115.872 93.4894 116.954 93.9377 117.752 94.7357L134.751 111.735C135.147 112.13 135.461 112.598 135.675 113.115C135.89 113.631 136 114.185 136 114.744C136 115.303 135.89 115.856 135.675 116.372C135.461 116.889 135.147 117.358 134.751 117.752L117.752 134.751C116.954 135.549 115.872 135.998 114.744 135.998C113.615 135.998 112.533 135.549 111.735 134.751C110.937 133.953 110.488 132.871 110.488 131.743C110.488 130.614 110.937 129.532 111.735 128.734L121.484 118.993H74.0054L83.7543 128.734C84.1501 129.129 84.4641 129.598 84.6783 130.114C84.8926 130.63 85.0028 131.184 85.0028 131.743C85.0028 132.302 84.8926 132.855 84.6783 133.371C84.4641 133.888 84.1501 134.357 83.7543 134.751Z" fill="#5C5961"/>
</svg>