<svg width="196" height="136" viewBox="0 0 196 136" fill="none" xmlns="http://www.w3.org/2000/svg">
<path d="M157.007 125.082C149.588 125.069 142.476 122.125 137.23 116.895C131.983 111.665 129.029 104.575 129.014 97.1785C129.02 92.3814 130.267 87.6669 132.634 83.4905C135.001 79.3142 138.409 75.8171 142.527 73.3372L142.652 73.2692L151.892 99.0085C152.665 101.139 154.671 102.635 157.03 102.635C157.664 102.63 158.293 102.515 158.888 102.295L158.848 102.306C159.524 102.063 160.146 101.689 160.677 101.206C161.208 100.724 161.638 100.141 161.943 99.4922C162.248 98.8433 162.422 98.1409 162.455 97.425C162.487 96.7091 162.378 95.9938 162.133 95.3202L162.144 95.3598L152.904 69.6035C154.126 69.4052 155.541 69.2805 156.978 69.2692H156.995C164.414 69.2827 171.526 72.2267 176.772 77.4565C182.019 82.6864 184.973 89.776 184.988 97.1729C184.976 104.568 182.026 111.663 176.782 116.894C171.539 122.125 164.43 125.071 157.012 125.088L157.007 125.082ZM95.1792 86.8952L77.4265 51.4109L123.945 49.0143L95.1792 86.8952ZM77.4265 91.7281C75.9771 81.6169 70.5889 72.4828 62.4299 66.306L62.3333 66.238L67.7546 56.459L85.3993 91.7281H77.4265ZM48.1891 91.7281L56.9916 75.8641C61.7912 79.8975 65.0949 85.4197 66.3737 91.5468L66.4021 91.7281H48.1891ZM38.9377 125.082C31.5187 125.069 24.4073 122.125 19.1607 116.895C13.9141 111.665 10.9599 104.575 10.9448 97.1785C10.9584 89.7816 13.9112 82.6915 19.1567 77.4605C24.4022 72.2296 31.513 69.2842 38.9321 69.2692C41.978 69.2692 44.9045 69.7564 47.6436 70.6573L47.4447 70.6006L34.1643 94.5723C33.6995 95.4031 33.4632 96.3415 33.4791 97.2927C33.4951 98.2438 33.7628 99.1739 34.2552 99.9887L34.2438 99.9661C35.2099 101.581 36.9488 102.64 38.9377 102.646H66.3737C63.7029 115.53 52.4171 125.076 38.898 125.082H38.9377ZM157.024 58.3684H156.978C154.217 58.3684 151.523 58.6573 148.92 59.2012L149.176 59.1559L131.367 9.53554C131.069 8.72059 130.582 7.98782 129.945 7.39772C129.307 6.80762 128.538 6.37713 127.701 6.14178L127.661 6.13045L105.84 0.192778C104.449 -0.186605 102.964 -0.00144385 101.709 0.707778C100.455 1.417 99.5333 2.59258 99.1457 3.97748L99.1344 4.01714C98.7569 5.40087 98.9427 6.87727 99.6515 8.12508C100.36 9.37288 101.535 10.2911 102.919 10.68L102.959 10.6914L122.053 15.8811L129.952 37.8245L72.136 40.799L69.9822 36.5044H76.29C77.0063 36.5066 77.716 36.3676 78.3782 36.0953C79.0404 35.8231 79.642 35.4229 80.1485 34.918C80.655 34.413 81.0564 33.8131 81.3294 33.1529C81.6025 32.4926 81.7419 31.7851 81.7397 31.0709C81.7397 29.6284 81.1649 28.2393 80.1418 27.2193C79.1188 26.1992 77.7312 25.6262 76.2843 25.6262H44.9159C43.4691 25.6262 42.0815 26.1992 41.0584 27.2193C40.0353 28.2393 39.4605 29.6227 39.4605 31.0653C39.4583 31.7794 39.5977 32.4926 39.8708 33.1529C40.1439 33.8131 40.5452 34.413 41.0517 34.918C41.5582 35.4229 42.1599 35.8231 42.8221 36.0953C43.4843 36.3676 44.1939 36.5066 44.9102 36.5044H57.7417L61.8333 44.663L52.7807 60.9803C48.3661 59.267 43.6694 58.3907 38.9321 58.3967C28.6158 58.4057 18.7186 62.4936 11.4213 69.7638C4.12393 77.0341 0.0165478 86.8931 0 97.1785C0.010525 107.466 4.11351 117.336 11.4089 124.612C18.7043 131.887 28.5963 135.981 38.915 135.994C48.2454 135.978 57.2598 132.622 64.3182 126.538C71.3766 120.455 76.01 112.047 77.3754 102.844L77.3981 102.635H94.1961C95.0349 102.635 95.8625 102.442 96.6145 102.072C97.3664 101.701 98.0226 101.163 98.532 100.499L98.5434 100.487L135.1 52.3344L138.885 62.8839C126.428 69.5185 118.092 82.3853 118.075 97.1898V97.1955C118.085 107.483 122.188 117.346 129.484 124.621C136.78 131.896 146.672 135.988 156.99 136C167.307 135.988 177.198 131.896 184.494 124.623C191.789 117.349 195.893 107.488 195.905 97.2012C195.891 86.9158 191.787 77.0555 184.492 69.7832C177.196 62.5108 167.306 58.42 156.99 58.408L157.024 58.3684Z" fill="#5C5961"/>
</svg>

