<svg width="118" height="136" viewBox="0 0 118 136" fill="none" xmlns="http://www.w3.org/2000/svg">
<path d="M53.1363 1.32933C52.2841 0.478175 51.1283 0 49.9231 0C48.7179 0 47.5621 0.478175 46.7099 1.32933C45.8577 2.18049 45.3789 3.33491 45.3789 4.53863C45.3789 5.74234 45.8577 6.89676 46.7099 7.74792L57.1483 18.1736C45.5635 18.5369 34.3424 22.3002 24.8858 28.9938C15.4292 35.6873 8.15596 45.0145 3.97408 55.8111C-0.207798 66.6077 -1.11309 78.3954 1.37121 89.7027C3.8555 101.01 9.61934 111.336 17.9432 119.392C26.2671 127.448 36.7822 132.876 48.1761 135C59.5699 137.124 71.3377 135.848 82.0104 131.334C92.6831 126.819 101.788 119.264 108.188 109.613C114.589 99.9617 118.001 88.6414 118 77.065V76.7024C117.988 76.1428 117.866 75.591 117.641 75.0786C117.415 74.5661 117.091 74.103 116.687 73.7157C116.282 73.3285 115.805 73.0246 115.283 72.8215C114.761 72.6184 114.203 72.5201 113.643 72.5321H113.262C112.085 72.5607 110.968 73.0537 110.155 73.9034C109.342 74.753 108.899 75.8899 108.923 77.065C108.923 86.8453 106.043 96.4096 100.642 104.568C95.2406 112.725 87.5565 119.117 78.546 122.946C69.5355 126.775 59.5964 127.873 49.9658 126.103C40.3352 124.333 31.4384 119.774 24.3827 112.992C17.3269 106.21 12.4239 97.5058 10.2838 87.962C8.14369 78.4181 8.86101 68.4564 12.3465 59.3167C15.832 50.1769 21.9317 42.2628 29.8864 36.5592C37.8412 30.8557 47.2997 27.6146 57.0848 27.2394L46.7099 37.5925C46.2879 38.014 45.9532 38.5143 45.7248 39.065C45.4964 39.6156 45.3789 40.2058 45.3789 40.8018C45.3789 41.3979 45.4964 41.988 45.7248 42.5387C45.9532 43.0893 46.2879 43.5897 46.7099 44.0111C47.1318 44.4326 47.6328 44.7669 48.1841 44.995C48.7354 45.2231 49.3263 45.3405 49.9231 45.3405C50.5198 45.3405 51.1107 45.2231 51.6621 44.995C52.2134 44.7669 52.7143 44.4326 53.1363 44.0111L71.2902 25.8795C71.7128 25.4585 72.0481 24.9582 72.2769 24.4075C72.5057 23.8568 72.6235 23.2665 72.6235 22.6702C72.6235 22.074 72.5057 21.4836 72.2769 20.9329C72.0481 20.3822 71.7128 19.882 71.2902 19.4609L53.1363 1.32933ZM89.444 55.7241C89.8667 56.1452 90.202 56.6454 90.4308 57.1961C90.6596 57.7468 90.7773 58.3372 90.7773 58.9334C90.7773 59.5297 90.6596 60.12 90.4308 60.6707C90.202 61.2214 89.8667 61.7217 89.444 62.1427L62.2132 89.3401C61.7917 89.7623 61.2908 90.0972 60.7394 90.3257C60.1881 90.5542 59.597 90.6718 59 90.6718C58.403 90.6718 57.8119 90.5542 57.2606 90.3257C56.7092 90.0972 56.2084 89.7623 55.7868 89.3401L42.1714 75.7414C41.7494 75.32 41.4147 74.8196 41.1863 74.269C40.958 73.7183 40.8404 73.1282 40.8404 72.5321C40.8404 71.9361 40.958 71.3459 41.1863 70.7953C41.4147 70.2446 41.7494 69.7443 42.1714 69.3228C42.5934 68.9014 43.0943 68.5671 43.6456 68.339C44.197 68.1109 44.7879 67.9935 45.3846 67.9935C45.9814 67.9935 46.5723 68.1109 47.1236 68.339C47.6749 68.5671 48.1759 68.9014 48.5979 69.3228L59 79.7213L83.0175 55.7241C83.4391 55.302 83.9399 54.9671 84.4913 54.7386C85.0427 54.5101 85.6338 54.3924 86.2308 54.3924C86.8277 54.3924 87.4188 54.5101 87.9702 54.7386C88.5216 54.9671 89.0224 55.302 89.444 55.7241Z" fill="#5C5961"/>
</svg>

